<svg
  xmlns="http://www.w3.org/2000/svg"
  xmlns:xlink="http://www.w3.org/1999/xlink"
  aria-hidden="true"
  focusable="false"
  width="1em"
  height="1em"
  style="-ms-transform: rotate(360deg); -webkit-transform: rotate(360deg); transform: rotate(360deg);"
  preserveAspectRatio="xMidYMid meet"
  viewBox="0 0 24 24">
  <path class="uim-tertiary" d="M9 7a3 3 0 1 1 6 0v2h2V7A5 5 0 0 0 7 7v2h2V7zm3 11a1 1 0 0 1-1-1v-3a1 1 0 1 1 2 0v3a1 1 0 0 1-1 1z" opacity=".5" fill="#AABDCD"/>
  <path class="uim-primary" d="M17 9H7a3 3 0 0 0-3 3v7a3 3 0 0 0 3 3h10a3 3 0 0 0 3-3v-7a3 3 0 0 0-3-3zm-4 8a1 1 0 0 1-2 0v-3a1 1 0 1 1 2 0v3z" fill="#AABDCD"/>
</svg>
