<svg vueBox="0 0 40 42" fill="none" xmlns="http://www.w3.org/2000/svg">
  <path fill-rule="evenodd" clip-rule="evenodd" d="M34.035 20.67c.947-1.483-.128-2.444-.645-3.23.215-.654.775-2.311-1.377-3.752.345-1.484-1.42-3.055-3.054-3.796-.043-1.092-3.27-3.927-8.819-3.927-5.55 0-8.69 2.313-8.69 2.313.99-.437 4.775-1.528 8.26-1.528 5.335.088 7.227 2.312 7.227 2.312s-3.571-1.09-8.776-.828c-4.646.175-9.723 2.88-9.723 2.88s-.559.48-.43.828c.775-.305 4.173-2.007 9.594-2.705 5.42-.698 9.55 1.134 9.55 1.134s-.56.873-1.075 1.135c-2.97-.74-7.055-.785-11.401-.13-4.344.654-8.56 3.883-8.56 3.883s-.56.61-.13.873c1.162-.698 4.474-2.967 9.852-3.84 5.377-.873 8.26-.218 8.905.218-.645.393-5.937 1.135-10.153 2.095-4.216.96-7.055 2.574-8.346 3.753-1.29 1.177-1.42 3.141-.516 4.494-.086.436-.946 1.964 1.334 3.142-.044.83-1.162 2.4 2.366 4.059.301 2.007 3.7 4.538 9.12 5.236 5.464.741 8.26-1.703 8.26-1.703s-3.14 1.18-7.7.83c-4.216 0-7.744-3.403-7.744-3.403s2.15 1.57 8.647 2.182c6.539.261 9.98-1.92 9.98-1.92l.259-.437c-1.248.436-5.463 1.396-10.067 1.352-4.603-.043-9.12-2.792-9.12-2.792l.085-.567s-.128-.393.302-.262c.43.13 4.087 2.356 10.625 2.225 6.54-.13 9.895-2.27 9.895-2.27s.43-.61.216-.61c-2.71 1.047-6.755 1.964-10.799 1.964s-8.56-2.095-8.56-2.095l1.72-.698s2.968 1.266 9.163 1.09c6.195-.174 9.938-3.272 9.938-3.272s.13-.087.087-.349c-2.883 1.44-6.97 2.488-10.025 2.706-3.053.218-6.367-.786-6.367-.786s3.184-.436 8.346-1.527c5.507-.83 8.346-4.277 8.346-4.277m-2.58-5.76c.967.306.559 1.419.559 1.419s-1.334-.721-1.162-.721c.172-.218.602-.698.602-.698M28.1 12.03c.258-.043.688-.916.688-.916.86.567 1.162 1.003 1.248 1.484-.302-.175-2.195-.524-1.936-.568m-1.076.873s2.237.655 2.667.96c-.172.61-1.032 1.047-1.032 1.047s-1.979-.829-3.14-.96c.99-.437 1.505-1.047 1.505-1.047M7.047 21.296l-.401-.058s-.373-.728.172-1.31c.545-.58 2.094-2.18 7.457-3.461 5.364-1.28 9.292-1.804 12.247-.902.229.145-.115.204-.115.204s-7.371 1.54-9.666 1.949c-2.294.407-8.145 1.716-9.694 3.578m.725 3.782c-.495-.153-.624-1.309-.624-1.309.365.37 1.054.698 1.054.698s-.237.153-.43.611m4.61-4.51c2.265-.755 10.325-2.065 12.132-2.502 1.72-.377 4.789-1.483 4.789-1.483s1.75.727 1.693.844c-.058.116-1.492.873-3.586 1.542-2.093.668-11.27 2.414-13.278 2.792-2.008.379-4.59 1.746-4.59 1.746l-1.233-.93c.718-.99 4.073-2.008 4.073-2.008m-3.04 8.021l-.754-1.047-.02-.349c.064.371 1.204.61 1.204.61l-.43.786m1.42-1.68s-1.291-.567-1.442-.981c.258-.327.603-.59.603-.59.796.568 1.505.742 2.15.895-.365.153-1.311.677-1.311.677m3.226-1.397l-2.151-1.047c.344-.117 2.553-.96 4.79-1.367 4.904-.757 9.014-1.537 11.3-2.27 2.725-.872 4.33-2.21 4.33-2.21s.03.174.058 1.454c-2.466 2.793-11.931 4.131-13.795 4.48-1.865.35-4.532.96-4.532.96" fill="currentColor"/>
  <path fill-rule="evenodd" clip-rule="evenodd" d="M19.778.634C8.854.635 0 9.617 0 20.698c0 11.08 8.854 20.06 19.778 20.062 10.924-.001 19.778-8.983 19.778-20.062 0-11.08-8.854-20.063-19.778-20.064m0 39.288C9.311 39.902.845 31.314.824 20.698.845 10.08 9.311 1.49 19.778 1.473c10.468.018 18.934 8.607 18.953 19.225-.019 10.616-8.485 19.204-18.953 19.224" fill="currentColor"/>
</svg>
