<svg viewBox="0 0 173 57" fill="none" xmlns="http://www.w3.org/2000/svg">
  <path fill-rule="evenodd" clip-rule="evenodd" d="M145.296 9.90484H149.072V28.8605H154.952V4H139.478V28.8605H145.296V9.90484Z" fill="currentColor"/>
  <path fill-rule="evenodd" clip-rule="evenodd" d="M131.369 10.0298H137.064V4H125.365V28.8605H131.369V10.0298Z" fill="currentColor"/>
  <path fill-rule="evenodd" clip-rule="evenodd" d="M85.1943 28.8605H91.0749V9.90484H96.4157V4H79.8535V9.90484H85.1943V28.8605Z" fill="currentColor"/>
  <path fill-rule="evenodd" clip-rule="evenodd" d="M105.186 9.90484H108.963V28.8605H114.843V4H99.3682V28.8605H105.186V9.90484Z" fill="currentColor"/>
  <path fill-rule="evenodd" clip-rule="evenodd" d="M69.4921 23.6607C67.6945 23.8317 66.3865 23.126 64.0012 21.2131L62.0647 25.2446C63.9732 27.4599 66.5973 28.8285 69.4921 28.8285C75.8191 28.8148 80.1417 24.4527 80.0635 16.4156C80.0635 9.56395 75.3272 4.00024 69.4921 4.00024C66.5654 4.00024 63.9165 5.40024 62 7.65992L64.6872 11.8712C65.8179 10.226 67.55 9.1696 69.4921 9.1696C70.904 9.1696 72.208 9.72766 73.2477 10.6656C74.194 11.522 74.4328 12.6906 74.4847 14.0414H66.6684V18.8648H74.634C74.6748 19.7744 74.436 20.597 73.8914 21.2978C72.7646 22.7494 71.2968 23.6607 69.4921 23.6607" fill="currentColor"/>
  <path fill-rule="evenodd" clip-rule="evenodd" d="M163.556 24.0148V18.3398H165.309C166.546 18.3398 167.228 19.0527 167.228 21.1213C167.228 23.1906 166.299 23.9261 165.495 23.9915C164.754 24.0535 163.556 24.0148 163.556 24.0148M172.777 20.9068C172.777 13.7802 166.464 13.1552 164.793 13.1552H163.556V9.65516H171.354V4.00032H158.046V28.8608H165.474C166.651 28.8608 172.777 28.0326 172.777 20.9068" fill="currentColor"/>
  <path fill-rule="evenodd" clip-rule="evenodd" d="M43.3956 26.0838C44.6021 24.2118 43.2315 22.9998 42.5732 22.0086C42.8474 21.183 43.5606 19.091 40.8177 17.2734C41.2568 15.4006 39.0072 13.4182 36.9234 12.483C36.8684 11.1054 32.7541 7.52696 25.6795 7.52696C18.6032 7.52696 14.5989 10.4462 14.5989 10.4462C15.8604 9.89496 20.6871 8.51816 25.1304 8.51816C31.9326 8.62856 34.3455 11.4358 34.3455 11.4358C34.3455 11.4358 29.7922 10.0598 23.1558 10.3902C17.2318 10.611 10.7596 14.0246 10.7596 14.0246C10.7596 14.0246 10.0464 14.6302 10.2113 15.0702C11.1987 14.6854 15.5313 12.5374 22.4426 11.6566C29.3539 10.775 34.6196 13.0878 34.6196 13.0878C34.6196 13.0878 33.9064 14.1894 33.2482 14.5198C29.463 13.5846 24.2531 13.5286 18.7124 14.355C13.1733 15.1806 7.79761 19.2558 7.79761 19.2558C7.79761 19.2558 7.08441 20.0262 7.63266 20.3566C9.11405 19.4758 13.3375 16.6126 20.1938 15.511C27.0501 14.4094 30.7253 15.2366 31.5477 15.787C30.7253 16.2822 23.9782 17.219 18.6032 18.4302C13.2275 19.6414 9.60731 21.6782 7.96177 23.1654C6.31622 24.6518 6.15206 27.1302 7.30355 28.8374C7.19358 29.3878 6.09708 31.3158 9.00408 32.8022C8.94909 33.8486 7.52269 35.831 12.021 37.9238C12.4051 40.4566 16.7377 43.6502 23.649 44.5318C30.6161 45.467 34.1805 42.383 34.1805 42.383C34.1805 42.383 30.177 43.871 24.363 43.4302C18.9873 43.4302 14.4898 39.135 14.4898 39.135C14.4898 39.135 17.2318 41.1174 25.5145 41.8886C33.8514 42.219 38.2398 39.4654 38.2398 39.4654L38.5689 38.915C36.9784 39.4654 31.6035 40.6766 25.7337 40.6214C19.8647 40.567 14.1049 37.0974 14.1049 37.0974L14.2148 36.3814C14.2148 36.3814 14.0507 35.8854 14.5989 36.051C15.148 36.2158 19.8097 39.0246 28.1466 38.859C36.4843 38.6942 40.7627 35.9958 40.7627 35.9958C40.7627 35.9958 41.311 35.2246 41.0377 35.2246C37.5816 36.5462 32.425 37.703 27.2692 37.703C22.1135 37.703 16.3545 35.0598 16.3545 35.0598L18.5483 34.179C18.5483 34.179 22.3326 35.7758 30.2312 35.555C38.1299 35.335 42.9023 31.4254 42.9023 31.4254C42.9023 31.4254 43.0665 31.3158 43.0123 30.9854C39.3363 32.8022 34.1264 34.1238 30.2312 34.399C26.3377 34.6742 22.1135 33.4078 22.1135 33.4078C22.1135 33.4078 26.1727 32.8574 32.7541 31.4806C39.7754 30.4342 43.3956 26.0838 43.3956 26.0838M40.1045 18.815C41.3381 19.2006 40.8177 20.6054 40.8177 20.6054C40.8177 20.6054 39.1172 19.6958 39.3363 19.6958C39.5563 19.4214 40.1045 18.815 40.1045 18.815M35.8261 15.1806C36.1552 15.1262 36.7035 14.0246 36.7035 14.0246C37.8008 14.7398 38.1848 15.291 38.2948 15.8974C37.9107 15.6766 35.497 15.2366 35.8261 15.1806M34.4555 16.2822C34.4555 16.2822 37.3075 17.1086 37.8557 17.4934C37.6366 18.2646 36.5393 18.815 36.5393 18.815C36.5393 18.815 34.0164 17.7694 32.535 17.6038C33.7972 17.0526 34.4555 16.2822 34.4555 16.2822M8.98575 26.8734L8.47416 26.7998C8.47416 26.7998 7.99842 25.8822 8.69409 25.1478C9.38817 24.4142 11.3628 22.3958 18.2008 20.7798C25.0396 19.1638 30.0488 18.503 33.8156 19.6414C34.108 19.8246 33.669 19.899 33.669 19.899C33.669 19.899 24.2714 21.843 21.3453 22.3582C18.4208 22.8726 10.9604 24.5238 8.98575 26.8734M9.90933 31.6462C9.2782 31.4526 9.11405 29.9942 9.11405 29.9942C9.58022 30.4622 10.4576 30.875 10.4576 30.875C10.4576 30.875 10.1556 31.0678 9.90933 31.6462M15.7879 25.9558C18.6758 25.0022 28.9515 23.3494 31.2552 22.7982C33.4498 22.3214 37.3617 20.9262 37.3617 20.9262C37.3617 20.9262 39.5929 21.8438 39.5204 21.991C39.4463 22.1382 37.6183 23.0926 34.9487 23.9366C32.28 24.7806 20.5779 26.983 18.0183 27.4606C15.4588 27.9382 12.1677 29.6638 12.1677 29.6638L10.5946 28.4894C11.5095 27.2414 15.7879 25.9558 15.7879 25.9558M11.9111 36.0782L10.9508 34.7566L10.9237 34.3166C11.0066 34.7846 12.4593 35.087 12.4593 35.087L11.9111 36.0782M13.7216 33.959C13.7216 33.959 12.076 33.2422 11.884 32.7198C12.2131 32.307 12.6522 31.9766 12.6522 31.9766C13.6666 32.6918 14.571 32.9118 15.3942 33.1046C14.928 33.2982 13.7216 33.959 13.7216 33.959M17.835 32.1966L15.0922 30.875C15.5313 30.7278 18.3474 29.6646 21.1995 29.1502C27.4525 28.195 32.6928 27.211 35.607 26.2862C39.0813 25.1854 41.1285 23.4958 41.1285 23.4958C41.1285 23.4958 41.166 23.7166 41.2018 25.331C38.0573 28.8558 25.9895 30.5446 23.6132 30.9854C21.2361 31.4254 17.835 32.1966 17.835 32.1966" fill="currentColor"/>
  <path fill-rule="evenodd" clip-rule="evenodd" d="M25.2176 0.799999C11.2898 0.801599 0.000488281 12.136 0.000488281 26.1184C0.000488281 40.1 11.2898 51.4336 25.2176 51.4352C39.1454 51.4336 50.4347 40.1 50.4347 26.1184C50.4347 12.136 39.1454 0.801599 25.2176 0.799999M25.2176 50.3776C11.8715 50.3528 1.07786 39.5152 1.05157 26.1184C1.07786 12.72 11.8715 1.8816 25.2176 1.8584C38.5637 1.8816 49.3589 12.72 49.3828 26.1184C49.3589 39.5152 38.5637 50.3528 25.2176 50.3776" fill="currentColor"/>
  <path d="M70.6172 43.0527H67.7354V51H66.1421V43.0527H63.2856V41.7578H70.6172V43.0527ZM70.0776 47.5024C70.0776 46.8296 70.2109 46.2244 70.4775 45.687C70.7441 45.1453 71.1187 44.7306 71.6011 44.4429C72.0835 44.1509 72.6379 44.0049 73.2642 44.0049C74.1909 44.0049 74.9421 44.3032 75.5176 44.8999C76.0973 45.4966 76.4105 46.2879 76.457 47.2739L76.4634 47.6357C76.4634 48.3128 76.3322 48.918 76.0698 49.4512C75.8117 49.9844 75.4393 50.397 74.9526 50.689C74.4702 50.981 73.9116 51.127 73.2769 51.127C72.3078 51.127 71.5312 50.8053 70.9473 50.1621C70.3675 49.5146 70.0776 48.6535 70.0776 47.5786V47.5024ZM71.6201 47.6357C71.6201 48.3424 71.7661 48.8968 72.0581 49.2988C72.3501 49.6966 72.7563 49.8955 73.2769 49.8955C73.7974 49.8955 74.2015 49.6924 74.4893 49.2861C74.7812 48.8799 74.9272 48.2853 74.9272 47.5024C74.9272 46.8084 74.777 46.2583 74.4766 45.8521C74.1803 45.4458 73.7762 45.2427 73.2642 45.2427C72.7606 45.2427 72.3607 45.4437 72.0645 45.8457C71.7682 46.2435 71.6201 46.8402 71.6201 47.6357ZM83.7822 47.6357C83.7822 48.6979 83.541 49.5464 83.0586 50.1812C82.5762 50.8117 81.9287 51.127 81.1162 51.127C80.363 51.127 79.7599 50.8794 79.3071 50.3843V53.6406H77.7646V44.1318H79.1865L79.25 44.8301C79.7028 44.2799 80.3185 44.0049 81.0972 44.0049C81.9351 44.0049 82.591 44.318 83.0649 44.9443C83.5431 45.5664 83.7822 46.4318 83.7822 47.5405V47.6357ZM82.2461 47.5024C82.2461 46.8169 82.1086 46.2731 81.8335 45.8711C81.5627 45.4691 81.1733 45.2681 80.6655 45.2681C80.035 45.2681 79.5822 45.5283 79.3071 46.0488V49.0957C79.5864 49.6289 80.0435 49.8955 80.6782 49.8955C81.1691 49.8955 81.5521 49.6987 81.8271 49.3052C82.1064 48.9074 82.2461 48.3065 82.2461 47.5024ZM89.6665 45.376H86.6831V51H85.147V44.1318H89.6665V45.376ZM90.1235 47.5024C90.1235 46.8296 90.2568 46.2244 90.5234 45.687C90.79 45.1453 91.1646 44.7306 91.647 44.4429C92.1294 44.1509 92.6838 44.0049 93.3101 44.0049C94.2368 44.0049 94.988 44.3032 95.5635 44.8999C96.1432 45.4966 96.4564 46.2879 96.5029 47.2739L96.5093 47.6357C96.5093 48.3128 96.3781 48.918 96.1157 49.4512C95.8576 49.9844 95.4852 50.397 94.9985 50.689C94.5161 50.981 93.9575 51.127 93.3228 51.127C92.3537 51.127 91.5771 50.8053 90.9932 50.1621C90.4134 49.5146 90.1235 48.6535 90.1235 47.5786V47.5024ZM91.666 47.6357C91.666 48.3424 91.812 48.8968 92.104 49.2988C92.396 49.6966 92.8022 49.8955 93.3228 49.8955C93.8433 49.8955 94.2474 49.6924 94.5352 49.2861C94.8271 48.8799 94.9731 48.2853 94.9731 47.5024C94.9731 46.8084 94.8229 46.2583 94.5225 45.8521C94.2262 45.4458 93.8221 45.2427 93.3101 45.2427C92.8065 45.2427 92.4066 45.4437 92.1104 45.8457C91.8141 46.2435 91.666 46.8402 91.666 47.6357ZM97.9312 51V44.1318H100.718C101.657 44.1318 102.372 44.2969 102.863 44.627C103.354 44.9528 103.6 45.4225 103.6 46.0361C103.6 46.3535 103.5 46.6392 103.301 46.8931C103.107 47.1427 102.817 47.3353 102.432 47.4707C102.88 47.5638 103.236 47.7521 103.498 48.0356C103.76 48.3192 103.892 48.6535 103.892 49.0386C103.892 49.6776 103.655 50.1642 103.181 50.4985C102.711 50.8328 102.034 51 101.149 51H97.9312ZM99.4736 48.0737V49.7812H101.162C101.953 49.7812 102.349 49.4977 102.349 48.9307C102.349 48.3594 101.947 48.0737 101.143 48.0737H99.4736ZM99.4736 46.9692H100.743C101.619 46.9692 102.057 46.7111 102.057 46.1948C102.057 45.6532 101.642 45.3739 100.813 45.3569H99.4736V46.9692ZM106.888 46.3154H108.398C108.961 46.3154 109.452 46.4128 109.871 46.6074C110.29 46.8021 110.607 47.075 110.823 47.4263C111.043 47.7775 111.153 48.1859 111.153 48.6514C111.153 49.3581 110.904 49.9251 110.404 50.3525C109.905 50.7799 109.241 50.9958 108.411 51H105.345V44.1318H106.888V46.3154ZM113.838 51H112.296V44.1318H113.838V51ZM106.888 47.5532V49.7686H108.392C108.769 49.7686 109.065 49.6755 109.281 49.4893C109.501 49.2988 109.611 49.0301 109.611 48.6831C109.611 48.3361 109.503 48.0632 109.287 47.8643C109.076 47.6611 108.788 47.5575 108.424 47.5532H106.888ZM119.977 44.1318H121.513V51H119.977V46.417L117.285 51H115.749V44.1318H117.285V48.7148L119.977 44.1318ZM120.7 41.4976C120.7 42.0308 120.514 42.4624 120.142 42.7925C119.769 43.1226 119.272 43.2876 118.65 43.2876C118.028 43.2876 117.531 43.1226 117.158 42.7925C116.786 42.4624 116.6 42.0308 116.6 41.4976H117.755C117.755 41.7769 117.833 41.9948 117.99 42.1514C118.151 42.3037 118.371 42.3799 118.65 42.3799C118.929 42.3799 119.147 42.3037 119.304 42.1514C119.46 41.9948 119.539 41.7769 119.539 41.4976H120.7ZM132.215 51H130.672V45.376H127.994V51H126.451V44.1318H132.215V51ZM133.567 47.5024C133.567 46.8296 133.7 46.2244 133.967 45.687C134.233 45.1453 134.608 44.7306 135.09 44.4429C135.573 44.1509 136.127 44.0049 136.753 44.0049C137.68 44.0049 138.431 44.3032 139.007 44.8999C139.587 45.4966 139.9 46.2879 139.946 47.2739L139.953 47.6357C139.953 48.3128 139.821 48.918 139.559 49.4512C139.301 49.9844 138.929 50.397 138.442 50.689C137.959 50.981 137.401 51.127 136.766 51.127C135.797 51.127 135.021 50.8053 134.437 50.1621C133.857 49.5146 133.567 48.6535 133.567 47.5786V47.5024ZM135.109 47.6357C135.109 48.3424 135.255 48.8968 135.547 49.2988C135.839 49.6966 136.246 49.8955 136.766 49.8955C137.287 49.8955 137.691 49.6924 137.979 49.2861C138.271 48.8799 138.417 48.2853 138.417 47.5024C138.417 46.8084 138.266 46.2583 137.966 45.8521C137.67 45.4458 137.265 45.2427 136.753 45.2427C136.25 45.2427 135.85 45.4437 135.554 45.8457C135.257 46.2435 135.109 46.8402 135.109 47.6357ZM147.271 47.6357C147.271 48.6979 147.03 49.5464 146.548 50.1812C146.065 50.8117 145.418 51.127 144.605 51.127C143.852 51.127 143.249 50.8794 142.796 50.3843V53.6406H141.254V44.1318H142.676L142.739 44.8301C143.192 44.2799 143.808 44.0049 144.586 44.0049C145.424 44.0049 146.08 44.318 146.554 44.9443C147.032 45.5664 147.271 46.4318 147.271 47.5405V47.6357ZM145.735 47.5024C145.735 46.8169 145.598 46.2731 145.323 45.8711C145.052 45.4691 144.663 45.2681 144.155 45.2681C143.524 45.2681 143.071 45.5283 142.796 46.0488V49.0957C143.076 49.6289 143.533 49.8955 144.167 49.8955C144.658 49.8955 145.041 49.6987 145.316 49.3052C145.596 48.9074 145.735 48.3065 145.735 47.5024ZM153.721 45.3569H151.493V51H149.95V45.3569H147.748V44.1318H153.721V45.3569ZM158.754 51C158.687 50.8688 158.627 50.6551 158.577 50.3589C158.086 50.8709 157.485 51.127 156.774 51.127C156.084 51.127 155.521 50.9302 155.085 50.5366C154.65 50.1431 154.432 49.6564 154.432 49.0767C154.432 48.3446 154.702 47.7839 155.244 47.3945C155.79 47.001 156.569 46.8042 157.58 46.8042H158.526V46.3535C158.526 45.998 158.426 45.7145 158.228 45.5029C158.029 45.2871 157.726 45.1792 157.32 45.1792C156.969 45.1792 156.681 45.2681 156.457 45.4458C156.232 45.6193 156.12 45.8415 156.12 46.1123H154.578C154.578 45.7357 154.702 45.3844 154.952 45.0586C155.202 44.7285 155.54 44.4704 155.968 44.2842C156.399 44.098 156.88 44.0049 157.409 44.0049C158.213 44.0049 158.854 44.208 159.332 44.6143C159.81 45.0163 160.056 45.5833 160.068 46.3154V49.4131C160.068 50.0309 160.155 50.5239 160.329 50.8921V51H158.754ZM157.06 49.8892C157.364 49.8892 157.65 49.8151 157.917 49.667C158.187 49.5189 158.39 49.32 158.526 49.0703V47.7754H157.694C157.123 47.7754 156.694 47.8748 156.406 48.0737C156.118 48.2726 155.974 48.554 155.974 48.918C155.974 49.2142 156.071 49.4512 156.266 49.6289C156.465 49.8024 156.729 49.8892 157.06 49.8892ZM167.521 44.1318V51H165.978V45.376H164.036L163.909 47.769C163.828 48.9201 163.606 49.7474 163.242 50.251C162.882 50.7503 162.33 51 161.585 51H161.109L161.103 49.7178L161.42 49.686C161.759 49.6395 162.004 49.4342 162.157 49.0703C162.313 48.7021 162.413 48.0335 162.455 47.0645L162.582 44.1318H167.521Z" fill="currentColor"/>
</svg>