<svg viewBox="0 0 19 21" fill="none" xmlns="http://www.w3.org/2000/svg">
  <path fill-rule="evenodd" clip-rule="evenodd" d="M7.11308 1.26769C4.54455 2.05169 2.66551 4.48529 2.66551 7.36289V9.64209C2.66551 11.0413 2.29377 12.4157 1.58864 13.6165L0.0633368 16.2173C-0.0188371 16.3589 -0.021185 16.5333 0.0570759 16.6765C0.136902 16.8181 0.28325 16.9077 0.443685 16.9077H17.3386C17.4991 16.9077 17.647 16.8181 17.726 16.6773C17.8051 16.5349 17.8019 16.3589 17.7206 16.2189L16.1937 13.6181C15.4886 12.4173 15.116 11.0413 15.116 9.64209V7.36289C15.116 4.48529 13.2378 2.05169 10.67 1.26769C10.67 1.26769 9.65734 1.00049 8.89116 1.00049C8.10151 1.00049 7.11308 1.26769 7.11308 1.26769Z" stroke="#A9BDCC" stroke-width="1.56522" stroke-linecap="round" stroke-linejoin="round"/>
  <path d="M12.3747 16.9067C12.3747 18.8739 10.815 20.4667 8.89208 20.4667C6.96843 20.4667 5.40869 18.8739 5.40869 16.9067" stroke="#A9BDCC" stroke-width="1.56522" stroke-linecap="round" stroke-linejoin="round"/>
</svg>