<svg width="16" height="14" viewBox="0 0 16 14" fill="none" xmlns="http://www.w3.org/2000/svg">
<path fill-rule="evenodd" clip-rule="evenodd" d="M15.8983 12.3612C15.8983 13.1433 15.2637 13.7779 14.4816 13.7779H2.20378C1.42166 13.7779 0.787109 13.1433 0.787109 12.3612V3.86122C0.787109 3.0791 1.42166 2.44455 2.20378 2.44455H4.801L5.16402 1.47354C5.37062 0.921636 5.89892 0.555664 6.48919 0.555664H10.1932C10.7835 0.555664 11.3118 0.921636 11.5184 1.47354L11.8844 2.44455H14.4816C15.2637 2.44455 15.8983 3.0791 15.8983 3.86122V12.3612ZM12.7733 8.11122C12.7733 5.83344 10.9399 3.68066 8.34267 3.68066C5.74544 3.68066 3.91211 5.514 3.91211 8.11122C3.91211 10.7084 6.12044 12.5418 8.34267 12.5418C10.5649 12.5418 12.7733 10.389 12.7733 8.11122ZM8.34267 10.7084C9.77409 10.7084 10.9399 9.54264 10.9399 8.11122C10.9399 6.67979 9.77409 5.514 8.34267 5.514C6.91124 5.514 5.74544 6.67979 5.74544 8.11122C5.74544 9.54264 6.91124 10.7084 8.34267 10.7084Z" fill="#316DA4"/>
</svg>
