<svg viewBox="0 0 17 18" fill="none" xmlns="http://www.w3.org/2000/svg">
  <path d="M1 4.23075H2.66667H16" stroke="currentColor" stroke-width="1.5" stroke-linecap="round" stroke-linejoin="round"/>
  <path d="M15.0832 4.23077C15.0832 3.81656 14.7474 3.48077 14.3332 3.48077C13.919 3.48077 13.5832 3.81656 13.5832 4.23077H15.0832ZM3.4165 4.23077C3.4165 3.81656 3.08072 3.48077 2.6665 3.48077C2.25229 3.48077 1.9165 3.81656 1.9165 4.23077H3.4165ZM4.86522 3.30769C4.86522 3.72191 5.20101 4.05769 5.61522 4.05769C6.02944 4.05769 6.36522 3.72191 6.36522 3.30769H4.86522ZM10.6345 3.30769C10.6345 3.72191 10.9702 4.05769 11.3845 4.05769C11.7987 4.05769 12.1345 3.72191 12.1345 3.30769H10.6345ZM13.5832 4.23077V15.5385H15.0832V4.23077H13.5832ZM13.5832 15.5385C13.5832 15.9945 13.195 16.4038 12.6665 16.4038V17.9038C13.9789 17.9038 15.0832 16.8667 15.0832 15.5385H13.5832ZM12.6665 16.4038H4.33317V17.9038H12.6665V16.4038ZM4.33317 16.4038C3.80464 16.4038 3.4165 15.9945 3.4165 15.5385H1.9165C1.9165 16.8667 3.02075 17.9038 4.33317 17.9038V16.4038ZM3.4165 15.5385V4.23077H1.9165V15.5385H3.4165ZM6.36522 3.30769V2.15385H4.86522V3.30769H6.36522ZM6.36522 2.15385C6.36522 2.10387 6.38858 2.01769 6.50619 1.92361C6.62517 1.82842 6.81761 1.75 7.05753 1.75V0.25C6.01157 0.25 4.86522 0.954857 4.86522 2.15385H6.36522ZM7.05753 1.75H9.94214V0.25H7.05753V1.75ZM9.94214 1.75C10.1821 1.75 10.3745 1.82842 10.4935 1.92361C10.6111 2.01769 10.6345 2.10387 10.6345 2.15385H12.1345C12.1345 0.954857 10.9881 0.25 9.94214 0.25V1.75ZM10.6345 2.15385V3.30769H12.1345V2.15385H10.6345Z" fill="currentColor"/>
  <path d="M6.83317 8.26929V13.1154" stroke="currentColor" stroke-width="1.5" stroke-linecap="round" stroke-linejoin="round"/>
  <path d="M10.1667 8.26929V13.1154" stroke="currentColor" stroke-width="1.5" stroke-linecap="round" stroke-linejoin="round"/>
</svg>
