<svg viewBox="0 0 18 17" fill="none" xmlns="http://www.w3.org/2000/svg">
  <circle cx="9.00018" cy="8.00006" r="2.18182" stroke="currentColor" stroke-width="1.5" stroke-linecap="round" stroke-linejoin="round"/>
  <path fill-rule="evenodd" clip-rule="evenodd" d="M14.3818 10.1818C14.1837 10.6306 14.2788 11.1548 14.6218 11.5055L14.6655 11.5491C14.9386 11.8219 15.0921 12.1921 15.0921 12.5782C15.0921 12.9642 14.9386 13.3344 14.6655 13.6073C14.3926 13.8804 14.0224 14.0339 13.6364 14.0339C13.2503 14.0339 12.8801 13.8804 12.6073 13.6073L12.5636 13.5636C12.213 13.2206 11.6888 13.1256 11.24 13.3236C10.8004 13.512 10.5146 13.9435 10.5127 14.4218V14.5455C10.5127 15.3488 9.86151 16 9.05818 16C8.25486 16 7.60364 15.3488 7.60364 14.5455V14.48C7.59211 13.9874 7.28063 13.5519 6.81818 13.3818C6.36939 13.1837 5.84523 13.2788 5.49455 13.6218L5.45091 13.6655C5.17808 13.9386 4.80787 14.0921 4.42182 14.0921C4.03577 14.0921 3.66555 13.9386 3.39273 13.6655C3.1196 13.3926 2.96613 13.0224 2.96613 12.6364C2.96613 12.2503 3.1196 11.8801 3.39273 11.6073L3.43636 11.5636C3.77939 11.213 3.87443 10.6888 3.67636 10.24C3.48795 9.80038 3.05647 9.51464 2.57818 9.51273H2.45455C1.65122 9.51273 1 8.86151 1 8.05818C1 7.25486 1.65122 6.60364 2.45455 6.60364H2.52C3.0126 6.59211 3.4481 6.28063 3.61818 5.81818C3.81625 5.36939 3.72121 4.84523 3.37818 4.49455L3.33455 4.45091C3.06142 4.17808 2.90795 3.80787 2.90795 3.42182C2.90795 3.03577 3.06142 2.66555 3.33455 2.39273C3.60737 2.1196 3.97759 1.96613 4.36364 1.96613C4.74969 1.96613 5.1199 2.1196 5.39273 2.39273L5.43636 2.43636C5.78704 2.77939 6.31121 2.87443 6.76 2.67636H6.81818C7.2578 2.48795 7.54355 2.05647 7.54545 1.57818V1.45455C7.54545 0.651222 8.19668 0 9 0C9.80332 0 10.4545 0.651222 10.4545 1.45455V1.52C10.4565 1.99829 10.7422 2.42977 11.1818 2.61818C11.6306 2.81625 12.1548 2.72121 12.5055 2.37818L12.5491 2.33455C12.8219 2.06142 13.1921 1.90795 13.5782 1.90795C13.9642 1.90795 14.3344 2.06142 14.6073 2.33455C14.8804 2.60737 15.0339 2.97759 15.0339 3.36364C15.0339 3.74969 14.8804 4.1199 14.6073 4.39273L14.5636 4.43636C14.2206 4.78704 14.1256 5.31121 14.3236 5.76V5.81818C14.512 6.2578 14.9435 6.54355 15.4218 6.54545H15.5455C16.3488 6.54545 17 7.19668 17 8C17 8.80332 16.3488 9.45455 15.5455 9.45455H15.48C15.0017 9.45645 14.5702 9.7422 14.3818 10.1818Z" stroke="currentColor" stroke-width="1.5" stroke-linecap="round" stroke-linejoin="round"/>
</svg>