<svg width="14" height="15" viewBox="0 0 14 15" fill="none" xmlns="http://www.w3.org/2000/svg">
  <path d="M1 2.8002H2.44444H14" stroke="#AABDCD" stroke-width="1.5" stroke-linecap="round" stroke-linejoin="round"/>
  <path d="M13.3054 2.8C13.3054 2.38579 12.9697 2.05 12.5554 2.05C12.1412 2.05 11.8054 2.38579 11.8054 2.8H13.3054ZM3.19434 2.8C3.19434 2.38579 2.85855 2.05 2.44434 2.05C2.03012 2.05 1.69434 2.38579 1.69434 2.8H3.19434ZM4.24989 2C4.24989 2.41421 4.58568 2.75 4.99989 2.75C5.41411 2.75 5.74989 2.41421 5.74989 2H4.24989ZM9.24989 2C9.24989 2.41421 9.58568 2.75 9.99989 2.75C10.4141 2.75 10.7499 2.41421 10.7499 2H9.24989ZM11.8054 2.8V12.6H13.3054V2.8H11.8054ZM11.8054 12.6C11.8054 12.9371 11.5168 13.25 11.111 13.25V14.75C12.3007 14.75 13.3054 13.8093 13.3054 12.6H11.8054ZM11.111 13.25H3.88878V14.75H11.111V13.25ZM3.88878 13.25C3.48298 13.25 3.19434 12.9371 3.19434 12.6H1.69434C1.69434 13.8093 2.69909 14.75 3.88878 14.75V13.25ZM3.19434 12.6V2.8H1.69434V12.6H3.19434ZM5.74989 2V1H4.24989V2H5.74989ZM5.74989 1C5.74989 0.992506 5.75172 0.944792 5.83453 0.878545C5.91872 0.811195 6.06308 0.75 6.24989 0.75V-0.75C5.31015 -0.75 4.24989 -0.114022 4.24989 1H5.74989ZM6.24989 0.75H8.74989V-0.75H6.24989V0.75ZM8.74989 0.75C8.93671 0.75 9.08107 0.811195 9.16525 0.878545C9.24806 0.944792 9.24989 0.992506 9.24989 1H10.7499C10.7499 -0.114022 9.68964 -0.75 8.74989 -0.75V0.75ZM9.24989 1V2H10.7499V1H9.24989Z" fill="#AABDCD"/>
  <path d="M6.05545 6.2998V10.4998" stroke="#AABDCD" stroke-width="1.5" stroke-linecap="round" stroke-linejoin="round"/>
  <path d="M8.94461 6.2998V10.4998" stroke="#AABDCD" stroke-width="1.5" stroke-linecap="round" stroke-linejoin="round"/>
</svg>
